<svg xmlns="http://www.w3.org/2000/svg" xmlns:xlink="http://www.w3.org/1999/xlink" width="300" zoomAndPan="magnify" viewBox="0 0 224.87999 225" height="300" preserveAspectRatio="xMidYMid meet" version="1.0"><defs><g/><clipPath id="8dbf038f63"><path d="M 99.359375 68.210938 L 130.089844 68.210938 L 130.089844 98.941406 L 99.359375 98.941406 Z M 99.359375 68.210938 " clip-rule="nonzero"/></clipPath><clipPath id="6035998c0a"><path d="M 114.726562 68.210938 C 106.238281 68.210938 99.359375 75.089844 99.359375 83.578125 C 99.359375 92.0625 106.238281 98.941406 114.726562 98.941406 C 123.210938 98.941406 130.089844 92.0625 130.089844 83.578125 C 130.089844 75.089844 123.210938 68.210938 114.726562 68.210938 " clip-rule="nonzero"/></clipPath><clipPath id="61b54e48ce"><path d="M 100.257812 121.804688 L 129.195312 121.804688 L 129.195312 150.742188 L 100.257812 150.742188 Z M 100.257812 121.804688 " clip-rule="nonzero"/></clipPath><clipPath id="a9d34e4c42"><path d="M 114.726562 121.804688 C 106.734375 121.804688 100.257812 128.285156 100.257812 136.273438 C 100.257812 144.265625 106.734375 150.742188 114.726562 150.742188 C 122.714844 150.742188 129.195312 144.265625 129.195312 136.273438 C 129.195312 128.285156 122.714844 121.804688 114.726562 121.804688 " clip-rule="nonzero"/></clipPath><clipPath id="20cad9a58a"><path d="M 70.160156 35.808594 L 94.628906 35.808594 L 94.628906 60.277344 L 70.160156 60.277344 Z M 70.160156 35.808594 " clip-rule="nonzero"/></clipPath><clipPath id="6ae6c5df98"><path d="M 82.394531 35.808594 C 75.636719 35.808594 70.160156 41.285156 70.160156 48.042969 C 70.160156 54.800781 75.636719 60.277344 82.394531 60.277344 C 89.152344 60.277344 94.628906 54.800781 94.628906 48.042969 C 94.628906 41.285156 89.152344 35.808594 82.394531 35.808594 " clip-rule="nonzero"/></clipPath><clipPath id="8cd8c37e82"><path d="M 52.898438 69.109375 L 81.835938 69.109375 L 81.835938 98.046875 L 52.898438 98.046875 Z M 52.898438 69.109375 " clip-rule="nonzero"/></clipPath><clipPath id="68d8ee0775"><path d="M 67.367188 69.109375 C 59.378906 69.109375 52.898438 75.585938 52.898438 83.578125 C 52.898438 91.566406 59.378906 98.046875 67.367188 98.046875 C 75.359375 98.046875 81.835938 91.566406 81.835938 83.578125 C 81.835938 75.585938 75.359375 69.109375 67.367188 69.109375 " clip-rule="nonzero"/></clipPath><clipPath id="4f305026ef"><path d="M 86 0.0585938 L 199 0.0585938 L 199 112 L 86 112 Z M 86 0.0585938 " clip-rule="nonzero"/></clipPath><clipPath id="7cb2ec9454"><path d="M 143.042969 26.789062 L 171.980469 26.789062 L 171.980469 55.726562 L 143.042969 55.726562 Z M 143.042969 26.789062 " clip-rule="nonzero"/></clipPath><clipPath id="d93ef7cf92"><path d="M 157.511719 26.789062 C 149.519531 26.789062 143.042969 33.265625 143.042969 41.257812 C 143.042969 49.25 149.519531 55.726562 157.511719 55.726562 C 165.503906 55.726562 171.980469 49.25 171.980469 41.257812 C 171.980469 33.265625 165.503906 26.789062 157.511719 26.789062 " clip-rule="nonzero"/></clipPath></defs><g fill="#3a0b46" fill-opacity="1"><g transform="translate(53.473931, 188.722109)"><g><path d="M 3.203125 0 L 3.203125 -27.703125 L 21.75 -27.703125 L 21.75 -22.46875 L 9.4375 -22.46875 L 9.4375 -16.671875 L 20.390625 -16.671875 L 20.390625 -11.4375 L 9.4375 -11.4375 L 9.4375 0 Z M 3.203125 0 "/></g></g></g><g fill="#3a0b46" fill-opacity="1"><g transform="translate(76.419403, 188.722109)"><g><path d="M 1.796875 -10.359375 C 1.796875 -12.222656 2.082031 -13.851562 2.65625 -15.25 C 3.226562 -16.644531 3.976562 -17.804688 4.90625 -18.734375 C 5.84375 -19.671875 6.914062 -20.378906 8.125 -20.859375 C 9.34375 -21.335938 10.59375 -21.578125 11.875 -21.578125 C 14.851562 -21.578125 17.207031 -20.664062 18.9375 -18.84375 C 20.675781 -17.019531 21.546875 -14.335938 21.546875 -10.796875 C 21.546875 -10.441406 21.53125 -10.054688 21.5 -9.640625 C 21.476562 -9.234375 21.453125 -8.867188 21.421875 -8.546875 L 7.90625 -8.546875 C 8.039062 -7.328125 8.613281 -6.359375 9.625 -5.640625 C 10.644531 -4.921875 12.003906 -4.5625 13.703125 -4.5625 C 14.796875 -4.5625 15.867188 -4.660156 16.921875 -4.859375 C 17.972656 -5.054688 18.832031 -5.300781 19.5 -5.59375 L 20.296875 -0.765625 C 19.984375 -0.597656 19.554688 -0.4375 19.015625 -0.28125 C 18.484375 -0.125 17.890625 0.0078125 17.234375 0.125 C 16.585938 0.25 15.890625 0.351562 15.140625 0.4375 C 14.398438 0.519531 13.65625 0.5625 12.90625 0.5625 C 11.019531 0.5625 9.375 0.28125 7.96875 -0.28125 C 6.570312 -0.84375 5.414062 -1.609375 4.5 -2.578125 C 3.582031 -3.546875 2.898438 -4.695312 2.453125 -6.03125 C 2.015625 -7.363281 1.796875 -8.804688 1.796875 -10.359375 Z M 15.78125 -12.625 C 15.757812 -13.132812 15.675781 -13.628906 15.53125 -14.109375 C 15.382812 -14.585938 15.15625 -15.015625 14.84375 -15.390625 C 14.539062 -15.765625 14.15625 -16.070312 13.6875 -16.3125 C 13.21875 -16.550781 12.640625 -16.671875 11.953125 -16.671875 C 11.285156 -16.671875 10.710938 -16.554688 10.234375 -16.328125 C 9.753906 -16.097656 9.351562 -15.796875 9.03125 -15.421875 C 8.707031 -15.054688 8.457031 -14.625 8.28125 -14.125 C 8.113281 -13.632812 7.988281 -13.132812 7.90625 -12.625 Z M 15.78125 -12.625 "/></g></g></g><g fill="#3a0b46" fill-opacity="1"><g transform="translate(99.764621, 188.722109)"><g><path d="M 14.34375 -11.15625 C 14.34375 -13.070312 14.097656 -14.425781 13.609375 -15.21875 C 13.117188 -16.019531 12.273438 -16.421875 11.078125 -16.421875 C 10.703125 -16.421875 10.3125 -16.398438 9.90625 -16.359375 C 9.507812 -16.328125 9.125 -16.285156 8.75 -16.234375 L 8.75 0 L 2.796875 0 L 2.796875 -20.296875 C 3.304688 -20.429688 3.898438 -20.570312 4.578125 -20.71875 C 5.253906 -20.863281 5.972656 -20.992188 6.734375 -21.109375 C 7.492188 -21.234375 8.269531 -21.328125 9.0625 -21.390625 C 9.863281 -21.460938 10.65625 -21.5 11.4375 -21.5 C 12.945312 -21.5 14.175781 -21.304688 15.125 -20.921875 C 16.070312 -20.535156 16.851562 -20.078125 17.46875 -19.546875 C 18.320312 -20.160156 19.300781 -20.640625 20.40625 -20.984375 C 21.507812 -21.328125 22.53125 -21.5 23.46875 -21.5 C 25.144531 -21.5 26.519531 -21.265625 27.59375 -20.796875 C 28.675781 -20.335938 29.535156 -19.679688 30.171875 -18.828125 C 30.816406 -17.972656 31.257812 -16.957031 31.5 -15.78125 C 31.738281 -14.613281 31.859375 -13.3125 31.859375 -11.875 L 31.859375 0 L 25.90625 0 L 25.90625 -11.15625 C 25.90625 -13.070312 25.65625 -14.425781 25.15625 -15.21875 C 24.664062 -16.019531 23.820312 -16.421875 22.625 -16.421875 C 22.300781 -16.421875 21.851562 -16.34375 21.28125 -16.1875 C 20.707031 -16.03125 20.234375 -15.832031 19.859375 -15.59375 C 20.046875 -14.976562 20.164062 -14.328125 20.21875 -13.640625 C 20.269531 -12.960938 20.296875 -12.238281 20.296875 -11.46875 L 20.296875 0 L 14.34375 0 Z M 14.34375 -11.15625 "/></g></g></g><g fill="#3a0b46" fill-opacity="1"><g transform="translate(134.222804, 188.722109)"><g><path d="M 3.203125 -27.703125 L 9.4375 -27.703125 L 9.4375 0 L 3.203125 0 Z M 3.203125 -27.703125 "/></g></g></g><g fill="#3a0b46" fill-opacity="1"><g transform="translate(146.854803, 188.722109)"><g><path d="M 23.734375 -27.703125 L 23.734375 -22.375 L 15.390625 -22.375 L 15.390625 0 L 9.15625 0 L 9.15625 -22.375 L 0.796875 -22.375 L 0.796875 -27.703125 Z M 23.734375 -27.703125 "/></g></g></g><g clip-path="url(#8dbf038f63)"><g clip-path="url(#6035998c0a)"><path stroke-linecap="butt" transform="matrix(0.7496, 0, 0, 0.7496, 99.358087, 68.209702)" fill="none" stroke-linejoin="miter" d="M 20.502236 0.00164764 C 9.178488 0.00164764 0.00171774 9.178418 0.00171774 20.502166 C 0.00171774 31.820704 9.178488 40.997474 20.502236 40.997474 C 31.820774 40.997474 40.997544 31.820704 40.997544 20.502166 C 40.997544 9.178418 31.820774 0.00164764 20.502236 0.00164764 " stroke="#3a0b46" stroke-width="16" stroke-opacity="1" stroke-miterlimit="4"/></g></g><path stroke-linecap="butt" transform="matrix(0.000000000000000046, -0.74983, 0.7496, 0.000000000000000046, 111.347683, 136.268927)" fill="none" stroke-linejoin="miter" d="M -0.000805932 4.502366 L 51.000361 4.502366 " stroke="#3a0b46" stroke-width="9" stroke-opacity="1" stroke-miterlimit="4"/><g clip-path="url(#61b54e48ce)"><g clip-path="url(#a9d34e4c42)"><path fill="#3a0b46" d="M 100.257812 121.804688 L 129.195312 121.804688 L 129.195312 150.742188 L 100.257812 150.742188 Z M 100.257812 121.804688 " fill-opacity="1" fill-rule="nonzero"/></g></g><path stroke-linecap="butt" transform="matrix(-0.506146, -0.541187, 0.547475, -0.512026, 102.375336, 75.31282)" fill="none" stroke-linejoin="miter" d="M 0.0000757144 4.501657 L 39.460424 4.501702 " stroke="#3a0b46" stroke-width="9" stroke-opacity="1" stroke-miterlimit="4"/><g clip-path="url(#20cad9a58a)"><g clip-path="url(#6ae6c5df98)"><path fill="#3a0b46" d="M 70.160156 35.808594 L 94.628906 35.808594 L 94.628906 60.277344 L 70.160156 60.277344 Z M 70.160156 35.808594 " fill-opacity="1" fill-rule="nonzero"/></g></g><path stroke-linecap="butt" transform="matrix(0.746974, 0, 0, 0.7496, 70.159114, 80.204386)" fill="none" stroke-linejoin="miter" d="M 0.00139504 4.50072 L 40.152985 4.50072 " stroke="#3a0b46" stroke-width="9" stroke-opacity="1" stroke-miterlimit="4"/><g clip-path="url(#8cd8c37e82)"><g clip-path="url(#68d8ee0775)"><path fill="#3a0b46" d="M 52.898438 69.109375 L 81.835938 69.109375 L 81.835938 98.046875 L 52.898438 98.046875 Z M 52.898438 69.109375 " fill-opacity="1" fill-rule="nonzero"/></g></g><g clip-path="url(#4f305026ef)"><path stroke-linecap="butt" transform="matrix(0.531573, -0.522829, 0.525634, 0.534424, 122.67462, 71.024363)" fill="none" stroke-linejoin="miter" d="M -0.00126155 4.499545 L 67.368812 4.500301 " stroke="#3a0b46" stroke-width="9" stroke-opacity="1" stroke-miterlimit="4"/></g><g clip-path="url(#7cb2ec9454)"><g clip-path="url(#d93ef7cf92)"><path fill="#3a0b46" d="M 143.042969 26.789062 L 171.980469 26.789062 L 171.980469 55.726562 L 143.042969 55.726562 Z M 143.042969 26.789062 " fill-opacity="1" fill-rule="nonzero"/></g></g></svg>